<?xml version="1.0" encoding="utf-8"?>
<!-- Generator: Adobe Illustrator 21.1.0, SVG Export Plug-In . SVG Version: 6.00 Build 0)  -->
<svg version="1.1" id="Livello_1" xmlns="http://www.w3.org/2000/svg" xmlns:xlink="http://www.w3.org/1999/xlink" x="0px" y="0px"
	 viewBox="0 0 172.4421387 67.5861588" style="enable-background:new 0 0 172.4421387 67.5861588;" xml:space="preserve">
<style type="text/css">
	.st0{clip-path:url(#SVGID_2_);}
	.st1{clip-path:url(#SVGID_4_);fill:#7EA79B;}
	.st2{clip-path:url(#SVGID_4_);fill:#66A8D8;}
	.st3{clip-path:url(#SVGID_4_);fill:#E77A0B;}
	.st4{clip-path:url(#SVGID_4_);fill:#4688BB;}
	.st5{clip-path:url(#SVGID_4_);fill:#B6B7BF;}
</style>
<g id="Academy_1_">
	<g>
		<defs>
			<rect id="SVGID_1_" width="172.4421387" height="67.5861588"/>
		</defs>
		<clipPath id="SVGID_2_">
			<use xlink:href="#SVGID_1_"  style="overflow:visible;"/>
		</clipPath>
		<g class="st0">
			<defs>
				<rect id="SVGID_3_" width="172.4421387" height="67.5861588"/>
			</defs>
			<clipPath id="SVGID_4_">
				<use xlink:href="#SVGID_3_"  style="overflow:visible;"/>
			</clipPath>
			<path class="st1" d="M51.2957115,1.8090744c-1.1639824-1.1644962-2.7095451-1.8020256-4.3547249-1.8020256
				c-1.6415443,0-3.1858025,0.6375293-4.3466644,1.7973462l-9.3087387,9.2915726
				c-1.1645012,1.1595592-1.806448,2.7061605-1.8077488,4.3536835c0,1.643363,0.6419468,3.1884012,1.8046284,4.3500433
				c1.1618996,1.165287,2.7061615,1.8033276,4.3492584,1.8033276c1.6397209,0,3.1891861-0.6380405,4.3529053-1.7999458
				l9.3069229-9.2915726C53.6905212,8.1125307,53.6915665,4.2098727,51.2957115,1.8090744"/>
			<path class="st2" d="M51.2903824,42.5935669l-9.3061371-9.2926102c-1.1647682-1.1606026-2.7113686-1.8004646-4.3536873-1.8004646
				c-1.6407623,0-3.1868439,0.6419411-4.3492622,1.8038483c-1.1629448,1.1629372-1.8046303,2.7074585-1.8028088,4.3505592
				c0,1.6449242,0.6414242,3.1912651,1.8059292,4.3542061l9.3082161,9.2923546
				c1.161644,1.16008,2.7053833,1.7991638,4.347702,1.7991638c1.6451874,0,3.1907463-0.6416855,4.3555107-1.8043671
				C53.6911774,48.8962402,53.6896172,44.9899445,51.2903824,42.5935669"/>
			<path class="st3" d="M32.6662445,26.5505829L32.6662445,26.5505829v-0.0208054
				c-0.003643-1.6360798-0.6411667-3.1761799-1.797348-4.3320999L10.4949112,1.8044426
				C9.3324881,0.6417602,7.7864075,0.0000794,6.1435657,0.0000794c-1.6415401,0-3.1858013,0.6396011-4.3461418,1.8015016
				c-2.3945532,2.3942933-2.3945532,6.2938313-0.0018197,8.6920261l16.0372086,16.0569763L1.7956039,42.6041794
				c-2.3961151,2.4013138-2.3927336,6.3008537,0.0018197,8.6961861c1.1603408,1.1595612,2.704602,1.796566,4.348484,1.796566
				c1.6405001,0,3.1844997-0.6390877,4.3490038-1.8004684L30.8681183,30.90271
				c1.1569595-1.1559181,1.7944832-2.6954994,1.7963028-4.3300152
				C32.6662445,26.5656738,32.6662445,26.5589104,32.6662445,26.5505829"/>
			<polygon class="st4" points="80.1603241,4.8198738 80.1603241,6.8502793 70.0673523,6.8502793 70.0673523,12.6056852 
				79.475975,12.6056852 79.475975,14.6334839 70.0673523,14.6334839 70.0673523,20.8974018 80.2365341,20.8974018 
				80.2365341,22.9267635 67.6595306,22.9267635 67.6595306,4.8198738 			"/>
			<polygon class="st4" points="81.8846817,9.8164158 84.6483231,9.8164158 87.7927628,14.4057627 91.0631027,9.8164158 
				93.6519547,9.8164158 89.1364822,15.8519611 94.208847,22.9287167 91.4441605,22.9287167 87.7927628,17.5005245 
				84.1398087,22.9287167 81.5288467,22.9287167 86.4482651,16.0306549 			"/>
			<path class="st4" d="M105.4038849,14.4687052c-0.1594467-0.5839405-0.4068069-1.1007748-0.7376633-1.5580435
				c-0.3266983-0.4551888-0.7496262-0.8209019-1.2662048-1.0906343c-0.515007-0.2697325-1.1184616-0.4062872-1.8134689-0.4062872
				c-0.725441,0-1.3424225,0.1430597-1.8493729,0.4294386c-0.5072021,0.2889776-0.9223404,0.6653557-1.2453918,1.1293869
				c-0.3194122,0.4676752-0.5522079,0.9946537-0.6957855,1.5853577c-0.1433182,0.591486-0.2169342,1.1936359-0.2169342,1.8009863
				c0,0.6429863,0.0793381,1.2649059,0.2312393,1.8644524c0.1516418,0.5987682,0.3911972,1.1288719,0.7207565,1.584837
				c0.3316345,0.4572735,0.7569122,0.8237648,1.2825928,1.101038c0.5225525,0.2801342,1.1566925,0.4185162,1.899826,0.4185162
				c0.7444305,0,1.3653107-0.1420212,1.8641968-0.4286613c0.4975815-0.2861156,0.9025726-0.6705589,1.2053375-1.1405716
				c0.3027649-0.4736557,0.5238571-1.0172806,0.6596298-1.6243725c0.1342239-0.6068325,0.2034073-1.2331734,0.2034073-1.8764191
				C105.6460495,15.6480379,105.5635986,15.0555124,105.4038849,14.4687052 M97.6584015,9.8164158v1.7736759h0.047081
				c0.3584213-0.7272587,0.9129715-1.2542381,1.6761322-1.5835361c0.7618561-0.330596,1.5970612-0.4949846,2.5092545-0.4949846
				c1.0170212,0,1.8982697,0.1854563,2.6515427,0.5592337c0.7509308,0.3709126,1.3772736,0.8742208,1.8740768,1.5081024
				c0.4978485,0.6325846,0.8770905,1.3666105,1.1314697,2.1916714c0.2512665,0.8307848,0.3805389,1.7112484,0.3805389,2.6395741
				c0,0.9296265-0.123291,1.8103523-0.3675308,2.6359329c-0.2468491,0.829483-0.6172333,1.5507603-1.1169052,2.1687794
				c-0.4975891,0.6172352-1.1244507,1.1012936-1.8769455,1.4579029c-0.7532654,0.3529682-1.6259232,0.5355625-2.6236954,0.5355625
				c-0.3222809,0-0.6817474-0.0382366-1.0791931-0.1053429c-0.3969269-0.0673676-0.7912445-0.1742706-1.1798553-0.3282585
				c-0.3870316-0.1526794-0.7561264-0.3599854-1.1020737-0.6198349c-0.3451614-0.2634907-0.6372604-0.5891438-0.8768158-0.976965
				h-0.047081v6.7461548h-2.1573334V9.8164158H97.6584015z"/>
			<path class="st4" d="M119.0375671,13.6696568c-0.1942978-0.4570103-0.458046-0.8474302-0.7860413-1.1777687
				c-0.3287811-0.3300762-0.7181549-0.590704-1.1668472-0.7876062c-0.4484253-0.1922197-0.9415817-0.2910614-1.484169-0.2910614
				c-0.5571518,0-1.0612488,0.0988417-1.5083694,0.2910614c-0.4489441,0.1969023-0.8331299,0.460392-1.1543579,0.8016529
				c-0.3214874,0.3373585-0.5753555,0.7296-0.7610703,1.179328c-0.1872787,0.4455643-0.2952271,0.9244232-0.3280029,1.430335
				h7.5296021C119.3442459,14.6096859,119.2297974,14.126667,119.0375671,13.6696568 M119.5562286,22.0898666
				c-0.9793091,0.7457294-2.2145615,1.1150837-3.7039413,1.1150837c-1.0479736,0-1.9547043-0.1675091-2.7254105-0.5061703
				c-0.7678375-0.3394394-1.413681-0.8130951-1.939621-1.4196663c-0.5217743-0.6102161-0.9174042-1.3364353-1.1772461-2.1804867
				c-0.2647934-0.8466492-0.4133072-1.7689934-0.4447861-2.7657261c0-0.9972534,0.1534653-1.9102306,0.4575348-2.7386742
				c0.3032761-0.8276644,0.7301254-1.5466051,1.2779083-2.1552563c0.5514221-0.6083889,1.2019577-1.0825691,1.9547043-1.420187
				c0.7509384-0.336319,1.5754776-0.5072126,2.47155-0.5072126c1.165535,0,2.1344376,0.2424221,2.9035797,0.7244005
				c0.7699203,0.4806814,1.3874207,1.0919323,1.8511887,1.837925c0.465332,0.7420874,0.7855225,1.5557022,0.9647446,2.4335699
				c0.1760864,0.8807211,0.249176,1.7174921,0.2148438,2.5102968h-9.8125687
				c-0.0187225,0.5758801,0.0489044,1.1202869,0.2002869,1.6358185c0.1521606,0.5170975,0.3977051,0.9704628,0.7374039,1.371809
				c0.3376236,0.3938065,0.7683563,0.7113953,1.2940369,0.9478321c0.5230789,0.2390423,1.139267,0.3555698,1.8509293,0.3555698
				c0.9127197,0,1.6587067-0.2106876,2.2439499-0.6341438c0.5836868-0.4226761,0.9655151-1.0651417,1.1540985-1.9276581h2.1289825
				C121.1715012,20.241024,120.5373535,21.3467388,119.5562286,22.0898666"/>
			<path class="st4" d="M125.8183746,9.8164158v2.7652102h0.0494156c0.5241241-1.0664434,1.1658096-1.8522291,1.9279251-2.3607397
				c0.7613373-0.5064316,1.7242584-0.7428694,2.889801-0.7093153v2.2821865c-0.8599243,0-1.5965424,0.1183491-2.205719,0.3555689
				c-0.6089096,0.2356548-1.0994797,0.5844603-1.4722061,1.039649c-0.3709183,0.456749-0.6411667,1.0115614-0.8086777,1.6610489
				c-0.1698456,0.6502705-0.2551651,1.3996401-0.2551651,2.2429113v5.8357811h-2.1555176V9.8164158H125.8183746z"/>
			<path class="st4" d="M134.5917664,22.9279861h-2.1547394V9.8154278h2.1547394V22.9279861z M132.4352112,4.8197942h2.155777
				v2.6367116h-2.155777V4.8197942z"/>
			<path class="st4" d="M139.2832794,19.9978428c0.2010498,0.328516,0.467926,0.5935688,0.7972107,0.7857895
				c0.3306122,0.1940403,0.702301,0.3344975,1.1143188,0.4177341c0.4151154,0.0863552,0.8435211,0.127449,1.2838898,0.127449
				c0.3373566,0,0.6923981-0.0260086,1.0643463-0.0751705c0.3711853-0.0522785,0.7132263-0.1435814,1.0263977-0.2803974
				c0.3128967-0.1349945,0.5699005-0.3337154,0.7743378-0.5943432c0.2010803-0.263752,0.3014679-0.5977287,0.3014679-1.0029774
				c0-0.5579319-0.2109528-0.9800873-0.6320496-1.2682877c-0.4224243-0.2868977-0.9514923-0.5199528-1.5840759-0.6970863
				c-0.6328278-0.1776543-1.3249817-0.3350182-2.0678558-0.4804192c-0.7436523-0.1433182-1.4324036-0.3454247-2.068634-0.6099529
				c-0.6317902-0.2624512-1.16008-0.6281633-1.5827484-1.1025972c-0.4242554-0.473918-0.6336365-1.1325111-0.6336365-1.9770794
				c0-0.6609344,0.1474915-1.2258883,0.4445343-1.7000675c0.2967834-0.4736567,0.6731567-0.8583527,1.1400604-1.1514978
				c0.464798-0.2975636,0.9897003-0.5189142,1.5712891-0.6614542c0.5847473-0.1438379,1.1634674-0.2158861,1.7385712-0.2158861
				c0.7433777,0,1.4259186,0.0642452,2.0535583,0.1898775c0.6263275,0.1284943,1.1782837,0.3482857,1.6615753,0.659894
				c0.4817047,0.3139505,0.8658905,0.7379236,1.1530457,1.2669859c0.2884674,0.5334797,0.4559631,1.1962357,0.5059204,1.9932051
				h-2.155014c-0.0327606-0.4224176-0.1427765-0.7730408-0.3290253-1.0531759
				c-0.1859741-0.2780552-0.4216309-0.5048714-0.7090454-0.6723804c-0.2874146-0.1675081-0.6057892-0.2931414-0.9517365-0.3693523
				c-0.3477783-0.07335-0.6973572-0.1141863-1.0531769-0.1141863c-0.3225403,0-0.6461182,0.0265284-0.974884,0.0780296
				c-0.3300934,0.0499411-0.628952,0.1378603-0.8999786,0.2668705c-0.2733612,0.1256323-0.4910889,0.2949629-0.6614532,0.5061693
				c-0.1667328,0.2122507-0.2507477,0.4851027-0.2507477,0.8240261c0,0.37117,0.1279755,0.6825209,0.3914642,0.9252014
				c0.2621765,0.2468433,0.5964355,0.4486876,1.0016785,0.6086512c0.4055023,0.1610079,0.8648529,0.2944431,1.3692017,0.4065495
				c0.5066986,0.1102848,1.0141602,0.2234354,1.5211029,0.3407412c0.5407715,0.1188688,1.0700989,0.2634888,1.5850983,0.4336014
				c0.5142365,0.1672468,0.9725494,0.3893805,1.3718109,0.6700392c0.3951111,0.2793522,0.7158203,0.6302376,0.9621429,1.053175
				c0.2447662,0.4218941,0.3693542,0.9480953,0.3693542,1.5710506c0,0.7943687-0.1669769,1.454525-0.4949951,1.9815006
				c-0.3316193,0.5204773-0.7613373,0.9447117-1.2947998,1.2669849c-0.5311432,0.3204556-1.1322632,0.542326-1.7996979,0.6689987
				c-0.6695099,0.128233-1.3314972,0.190918-1.9926758,0.190918c-0.725708,0-1.4181061-0.0756912-2.0774841-0.2255096
				c-0.6614532-0.1545067-1.2441101-0.4039516-1.7494965-0.7493744c-0.5077209-0.3477612-0.9132385-0.8019104-1.2167816-1.3692055
				c-0.3071899-0.5683365-0.4744263-1.2542419-0.5087585-2.0675983h2.1562805
				C138.9664612,19.2666836,139.0790863,19.6693306,139.2832794,19.9978428"/>
			<path class="st4" d="M150.4662323,4.8104591l0.613327,1.7156696l0.6177521-1.7156696h0.6791534v2.3966351h-0.4377747V5.2703314
				l-0.6645813,1.9367628h-0.3844299l-0.6687317-1.9367628v1.9367628h-0.4380188V4.8104591H150.4662323z M147.3306274,5.2076421
				V4.8104591h2.0457458v0.3971829h-0.7863007v1.9994521h-0.4749603V5.2076421H147.3306274z"/>
			<polygon class="st4" points="67.6361542,57.5536957 69.0672607,57.5536957 71.5408936,64.1515961 74.0262222,57.5536957 
				75.455513,57.5536957 75.455513,65.4060898 74.464241,65.4060898 74.464241,58.8747864 74.4429092,58.8747864 
				71.991394,65.4060898 71.0992279,65.4060898 68.6487503,58.8747864 68.6263809,58.8747864 68.6263809,65.4060898 
				67.6361542,65.4060898 			"/>
			<path class="st4" d="M80.3929901,62.471035c-0.3628464,0.2621918-1.0677414,0.2754555-1.6930466,0.3847008
				c-0.6177521,0.1102867-1.144989,0.3285179-1.144989,1.021965c0,0.6156769,0.5272369,0.8385849,1.1002502,0.8385849
				c1.2297897,0,1.7377853-0.7709579,1.7377853-1.289093V62.471035z M81.9107208,65.3842468
				c-0.1636124,0.1001358-0.3732605,0.1534576-0.6703033,0.1534576c-0.4845734,0-0.7920227-0.2614059-0.7920227-0.8781204
				c-0.5176239,0.6031876-1.211586,0.8781204-2.0017929,0.8781204c-1.0336685,0-1.8818741-0.4593506-1.8818741-1.5923767
				c0-1.2877922,0.9566727-1.5632477,1.9260941-1.7492256c1.0310669-0.1979408,1.913353-0.1321335,1.913353-0.8352051
				c0-0.8136177-0.6718521-0.947834-1.2643814-0.947834c-0.7938538,0-1.3741531,0.2442398-1.4186325,1.0799675h-0.9379501
				c0.0580063-1.4064026,1.1444778-1.9016495,2.4098969-1.9016495c1.0240479,0,2.1349716,0.2294159,2.1349716,1.5603905v2.9228287
				c0,0.4421844,0,0.6416855,0.2952194,0.6416855c0.0777664,0,0.1669922-0.0143051,0.2874222-0.0567017V65.3842468z"/>
			<path class="st4" d="M82.7457733,59.7215652h0.8788986v0.9020538h0.0223694
				c0.3987427-0.7056694,1.0323715-1.0341873,1.8475494-1.0341873c1.4969177,0,1.9567871,0.8586159,1.9567871,2.0792999v3.7374878
				h-0.9335251v-3.8488121c0-0.6908455-0.4393234-1.1421318-1.1543579-1.1421318
				c-1.1330338,0-1.6823807,0.758213-1.6823807,1.7809563v3.2099876h-0.9353409V59.7215652z"/>
			<path class="st4" d="M91.3448257,60.4152756c-1.2531967,0-1.7372589,1.0778847-1.7372589,2.1448479
				c0,1.1205444,0.5085068,2.1542091,1.79422,2.1542091c1.2740097,0,1.703186-1.0895882,1.703186-2.1979065
				C93.1049728,61.4499817,92.5548477,60.4152756,91.3448257,60.4152756 M88.7052536,59.7215652h0.9366455v0.7704391h0.0197678
				c0.3092728-0.6273804,1.0341873-0.9025726,1.8160782-0.9025726c1.7466202,0,2.6164246,1.386116,2.6164246,2.9917603
				c0,1.6051254-0.8578415,2.9582062-2.596138,2.9582062c-0.5810852,0-1.4157715-0.2192688-1.8363647-0.8916473h-0.0197678
				v2.9384384h-0.9366455V59.7215652z"/>
			<path class="st4" d="M97.5933762,64.714386c0.9764404,0,1.767952-0.7688751,1.767952-2.1440659
				c0-1.3855934-0.7915115-2.1552544-1.767952-2.1552544c-0.9800873,0-1.7755051,0.7696609-1.7755051,2.1552544
				C95.8178711,63.9455109,96.6132889,64.714386,97.5933762,64.714386 M97.5933762,59.5894852
				c1.799675,0,2.7589569,1.308342,2.7589569,2.980835c0,1.6594849-0.9592819,2.9691315-2.7589569,2.9691315
				c-1.8048935,0-2.7641754-1.3096466-2.7641754-2.9691315C94.8292007,60.8978271,95.7884827,59.5894852,97.5933762,59.5894852"/>
			<polygon class="st4" points="106.8067627,65.4062271 105.8173065,65.4062271 104.6626892,60.8858109 104.6395416,60.8858109 
				103.4981918,65.4062271 102.4871445,65.4062271 100.6601486,59.7226067 101.6912155,59.7226067 102.9803085,64.3730774 
				103.0021591,64.3730774 104.1458588,59.7226067 105.1680756,59.7226067 106.3552094,64.3730774 106.3794022,64.3730774 
				107.6531525,59.7226067 108.6220474,59.7226067 			"/>
			<path class="st4" d="M113.1298447,62.0199051c-0.0437012-0.8911285-0.7145157-1.604866-1.6373749-1.604866
				c-0.9816513,0-1.5645523,0.7366257-1.6277542,1.604866H113.1298447z M114.0300827,63.6055222
				c-0.2523041,1.2516403-1.1535873,1.9338989-2.4294128,1.9338989c-1.8129578,0-2.6715698-1.2534561-2.7277527-2.990715
				c0-1.7057877,1.1221085-2.9592476,2.6726151-2.9592476c2.0132294,0,2.629425,1.8805771,2.5727234,3.2565498h-4.25354
				c-0.0335541,0.9884109,0.5261917,1.8683548,1.7689896,1.8683548c0.7722549,0,1.3088608-0.3750763,1.4732513-1.1088409
				H114.0300827z"/>
			<path class="st4" d="M115.0542603,59.7215652h0.8796768v1.1996193h0.0205536
				c0.4510193-0.9147987,1.0776215-1.3642654,2.0894394-1.3317528v0.9884109c-1.5057602,0-2.0543289,0.8596535-2.0543289,2.2985725
				v2.5298042h-0.9353409V59.7215652z"/>
			<path class="st4" d="M124.7769394,64.4294128c-0.6044922,0.8235016-1.5970688,1.1639862-2.5209732,1.1639862
				c-2.3401871,0-3.7377472-1.9125748-3.7377472-3.9591026c0-2.2876511,1.2529373-4.26577,3.7377472-4.26577
				c1.7164536,0,3.0802002,0.7678375,3.3775101,2.6068001h-1.0446014c-0.2091217-1.187912-1.1668396-1.727375-2.3329086-1.727375
				c-1.9021606,0-2.6934204,1.6501236-2.6934204,3.3319817c0,1.6384201,0.9470596,3.1363831,2.6934204,3.1363831
				c1.6181335,0,2.5859985-1.134594,2.5209732-2.5651855h-2.5084839v-0.8786469h3.4414825v4.1349335h-0.6588516
				L124.7769394,64.4294128z"/>
			<path class="st4" d="M126.963089,59.7215652h0.879158v1.1996193h0.0228958
				c0.4510193-0.9147987,1.0765839-1.3642654,2.0883942-1.3317528v0.9884109c-1.5057526,0-2.0558853,0.8596535-2.0558853,2.2985725
				v2.5298042h-0.9345627V59.7215652z"/>
			<path class="st4" d="M132.8612518,64.714386c0.9787598,0,1.7692261-0.7688751,1.7692261-2.1440659
				c0-1.3855934-0.7904663-2.1552544-1.7692261-2.1552544c-0.9787903,0-1.7744598,0.7696609-1.7744598,2.1552544
				C131.086792,63.9455109,131.8824615,64.714386,132.8612518,64.714386 M132.8612518,59.5894852
				c1.799408,0,2.7573853,1.308342,2.7573853,2.980835c0,1.6594849-0.9579773,2.9691315-2.7573853,2.9691315
				c-1.8069763,0-2.7623596-1.3096466-2.7623596-2.9691315C130.0988922,60.8978271,131.0542755,59.5894852,132.8612518,59.5894852"
				/>
			<path class="st4" d="M141.2930298,65.4062271h-0.8786469v-0.900238h-0.0205536
				c-0.4002991,0.7038498-1.0339203,1.0326309-1.8475494,1.0326309c-1.4982147,0-1.9588623-0.8573151-1.9588623-2.0772247
				v-3.7387886h0.9335327v3.8485565c0,0.6939659,0.4403534,1.1452522,1.1561737,1.1452522
				c1.1319885,0,1.6828918-0.7613335,1.6828918-1.7832985v-3.2105103h0.9330139V65.4062271z"/>
			<path class="st4" d="M145.1755676,60.4152756c-1.2532043,0-1.7375183,1.0778847-1.7375183,2.1448479
				c0,1.1205444,0.5066833,2.1542091,1.7937012,2.1542091c1.2758331,0,1.7039795-1.0895882,1.7039795-2.1979065
				C146.93573,61.4499817,146.3850708,60.4152756,145.1755676,60.4152756 M142.5367889,59.7215652h0.9358521v0.7704391h0.0205383
				c0.3082428-0.6273804,1.0331726-0.9025726,1.8147888-0.9025726c1.7492218,0,2.615387,1.386116,2.615387,2.9917603
				c0,1.6051254-0.8565369,2.9582062-2.5945892,2.9582062c-0.5818634,0-1.4173126-0.2192688-1.8355865-0.8916473h-0.0205383
				v2.9384384h-0.9358521V59.7215652z"/>
			<path class="st5" d="M74.4504013,28.7956047h2.6216354l6.965683,17.8262291h-2.6216202l-1.9474335-5.3678474h-7.5397491
				l-1.9973602,5.3678474h-2.4468384L74.4504013,28.7956047z M72.6777725,39.2566185h6.042038l-2.9709473-8.3138256h-0.0499344
				L72.6777725,39.2566185z"/>
			<path class="st5" d="M94.198761,37.8584099c-0.3246155-1.6228142-1.4480209-2.5714264-3.1956863-2.5714264
				c-3.0708313,0-4.0197067,2.4216042-4.0197067,5.043232c0,2.3719215,1.0737305,4.7186165,3.7700043,4.7186165
				c2.0473099,0,3.2705917-1.1983185,3.5452652-3.1457443h2.1721649c-0.4744415,3.1457443-2.4468384,5.018261-5.6924667,5.018261
				c-3.9447861,0-6.0417786-2.7462196-6.0417786-6.5911331c0-3.8698845,1.9971085-6.9157486,6.0917282-6.9157486
				c2.9210052,0,5.2679596,1.3731079,5.5676041,4.443943H94.198761z"/>
			<path class="st5" d="M110.2769012,46.5717621c-0.3745499,0.2247353-0.8489838,0.3495865-1.5229263,0.3495865
				c-1.0986938,0-1.7978668-0.5990295-1.7978668-1.9973679c-1.1733475,1.3731079-2.7462158,1.9973679-4.5438232,1.9973679
				c-2.3469467,0-4.2691498-1.0484962-4.2691498-3.6201782c0-2.9210129,2.1718979-3.5452728,4.3690338-3.9697685
				c2.3469543-0.4492073,4.3443146-0.2993851,4.3443146-1.8974876c0-1.8475456-1.5229263-2.1469307-2.8710632-2.1469307
				c-1.7978668,0-3.1210327,0.5490875-3.2209167,2.4465752h-2.1222229c0.1248474-3.1956825,2.5966568-4.3190918,5.4677277-4.3190918
				c2.3219833,0,4.8437347,0.5241203,4.8437347,3.5450096v6.6413345c0,0.9988136,0,1.4480209,0.6739349,1.4480209
				c0.1747971,0,0.3745499-0.024971,0.6492233-0.1248512V46.5717621z M106.8315201,39.955658
				c-0.824028,0.5992889-2.4218674,0.6240005-3.8449173,0.873703c-1.3980789,0.2497025-2.5966568,0.7491112-2.5966568,2.3219833
				c0,1.3983421,1.1985779,1.8974876,2.4967728,1.8974876c2.7961655,0,3.9448013-1.7476616,3.9448013-2.9210091V39.955658z"/>
			<path class="st5" d="M123.7834778,46.6217041h-2.1222229v-1.7476654h-0.049942
				c-0.6991653,1.4230499-2.3469467,2.0473099-4.1195831,2.0473099c-3.9697647,0-5.9421692-3.1457443-5.9421692-6.7908974
				s1.9476929-6.7159843,5.8922195-6.7159843c1.3234329,0,3.2209167,0.4991455,4.1695328,2.0220757h0.049942v-6.6410713h2.1222229
				V46.6217041z M117.7913742,45.0488281c2.8460999,0,3.9447937-2.4468307,3.9447937-4.8684349
				c0-2.5467186-1.1486359-4.8934097-4.0696487-4.8934097c-2.8960419,0-3.8698807,2.4715424-3.8698807,4.9932899
				C113.7966385,42.702137,115.0448914,45.0488281,117.7913742,45.0488281"/>
			<path class="st5" d="M138.063858,42.5271912c-0.5743103,2.8463593-2.6216125,4.3942604-5.5176544,4.3942604
				c-4.1195984,0-6.0667572-2.8463593-6.1916122-6.7911568c0-3.8698845,2.5464554-6.7159805,6.0667496-6.7159805
				c4.569046,0,5.9671326,4.2694092,5.8422852,7.3901825h-9.6622314c-0.0749054,2.2470703,1.1985779,4.2444382,4.0197144,4.2444382
				c1.7476654,0,2.9709473-0.8489914,3.3455048-2.5217438H138.063858z M136.0165558,38.9319801
				c-0.099884-2.0223389-1.622818-3.645153-3.7200623-3.645153c-2.2220917,0-3.5452728,1.6727524-3.6950989,3.645153H136.0165558z"
				/>
			<path class="st5" d="M140.4602356,33.7139549h1.9973602v1.8974876h0.049942
				c0.9486084-1.4480171,2.396637-2.1971283,4.1692657-2.1971283c1.5731506,0,3.0211487,0.6242561,3.5452728,2.1971283
				c0.8739624-1.3731079,2.3969116-2.1971283,4.0446777-2.1971283c2.5716858,0,4.2943878,1.0737228,4.2943878,3.7450294v9.4624634
				h-2.1222229v-8.4639091c0-1.5978432-0.4244995-2.871067-2.496521-2.871067c-2.0475616,0-3.3707275,1.2984543-3.3707275,3.2955627
				v8.0394135h-2.1222229v-8.4639091c0-1.6727524-0.5241241-2.871067-2.4216003-2.871067
				c-2.521759,0-3.4453888,2.3219833-3.4453888,3.2955627v8.0394135h-2.1222229V33.7139549z"/>
			<path class="st5" d="M166.8247528,48.3445015c-0.9738464,2.5214844-1.8478088,3.4453888-3.7450409,3.4453888
				c-0.4994202,0-0.9988098-0.049942-1.4732513-0.2247353v-1.9474258c0.3997803,0.1248512,0.8240204,0.2996445,1.2485199,0.2996445
				c0.8739624,0,1.3481293-0.4244957,1.7476654-1.1733475l0.873703-2.1971283l-5.1181488-12.832943h2.3968964l3.7700043,10.5608978
				h0.049942l3.6201782-10.5608978h2.2470703L166.8247528,48.3445015z"/>
		</g>
	</g>
</g>
</svg>
